<svg xmlns="http://www.w3.org/2000/svg" width="192" height="192"><path fill="none" d="M0 0h192v192H0z"/><path fill="#01579B" d="M51 141l-26-26c-3.08-3.17-5-7.63-5-12 0-2.02 1.14-5.18 2-7l24-50 5 95z"/><path fill="#40C4FF" d="M140 51l-26-26c-2.27-2.28-7-5-11-5-3.44 0-6.81.69-9 2L46 46l94 5zM82 172h63v-27l-47-15-43 15z"/><path fill="#29B6F6" d="M46 127c0 8.02 1.01 9.99 5 14l4 4h90l-44-50-55-49v81z"/><path fill="#01579B" d="M126 46H46l99 99h27V83l-32-32c-4.49-4.51-8.49-5-14-5z"/><path opacity=".2" fill="#FFF" d="M52 142c-4-4.02-5-7.97-5-15V47l-1-1v81c0 7.03 0 8.98 6 15l3 3-3-3z"/><path opacity=".2" fill="#263238" d="M171 82v62h-27l1 1h27V83z"/><path opacity=".2" fill="#FFF" d="M140 51c-4.96-4.96-9.02-5-15-5H46l1 1h78c2.99 0 10.52-.5 15 4z"/><radialGradient id="a" cx="96" cy="96" r="76" gradientUnits="userSpaceOnUse"><stop offset="0" stop-color="#fff" stop-opacity=".1"/><stop offset="1" stop-color="#fff" stop-opacity="0"/></radialGradient><path opacity=".2" fill="url(#a)" d="M171 82l-31-31-26-26c-2.27-2.28-7-5-11-5-3.44 0-6.81.69-9 2L46 46 22 96c-.86 1.82-2 4.98-2 7 0 4.37 1.92 8.83 5 12l23.96 23.79c.57.7 1.25 1.42 2.04 2.21l1 1 3 3 26 26 1 1h63v-27h27V83l-1-1z"/></svg>
